<svg xmlns="http://www.w3.org/2000/svg" width="31" height="31" viewBox="0 0 31 31">
    <g fill="none" fill-rule="evenodd">
        <g fill-rule="nonzero">
            <g>
                <g>
                    <path fill="#FFF" d="M17.336 4.718l-2.105-2.103c-.257-.257-.6-.401-.964-.401s-.708.142-.965.401l-2.267 2.263c-.257.257-.401.603-.401.967 0 .365.142.707.401.966l1.771 1.773c-.407.945-.98 1.791-1.708 2.516-.725.73-1.573 1.305-2.514 1.712l-1.77-1.773c-.258-.257-.602-.401-.965-.401-.366 0-.708.142-.965.401l-2.269 2.263c-.257.257-.401.603-.401.967 0 .365.142.707.401.966l2.103 2.103c.439.44 1.044.69 1.664.69.129 0 .253-.01.38-.031 2.617-.431 5.214-1.825 7.311-3.92 2.095-2.099 3.487-4.696 3.922-7.315.124-.743-.125-1.508-.659-2.044zm-.743 1.809c-.385 2.33-1.638 4.654-3.526 6.542s-4.21 3.14-6.54 3.526c-.293.05-.593-.05-.807-.26l-2.065-2.066 2.19-2.192 2.368 2.372.017.017.427-.158c2.623-.966 4.683-3.026 5.647-5.649l.159-.427-2.388-2.385 2.19-2.192L16.33 5.72c.214.214.313.514.263.807z" transform="translate(-306 -500) translate(298 492) rotate(-135 19.566 14.167)"/>
                </g>
            </g>
        </g>
    </g>
</svg>
